HIERARCHY
ROOT Hips
{
	OFFSET 0.000000 0.000000 0.000000
	CHANNELS 6 Xposition Yposition Zposition Zrotation Yrotation Xrotation 
	JOINT LHipJoint
	{
		OFFSET 0.000000 0.000000 0.000000
		CHANNELS 3 Zrotation Yrotation Xrotation
		JOINT LeftUpLeg
		{
			OFFSET 1.363060 -1.794630 0.839290
			CHANNELS 3 Zrotation Yrotation Xrotation
			JOINT LeftLeg
			{
				OFFSET 2.448110 -6.726130 0.000000
				CHANNELS 3 Zrotation Yrotation Xrotation
				JOINT LeftFoot
				{
					OFFSET 2.562200 -7.039590 0.000000
					CHANNELS 3 Zrotation Yrotation Xrotation
					JOINT LeftToeBase
					{
						OFFSET 0.157640 -0.433110 2.322550
						CHANNELS 3 Zrotation Yrotation Xrotation
						End Site
						{
							OFFSET 0.000000 0.000000 0.000000
						}
					}
				}
			}
		}
	}
	JOINT RHipJoint
	{
		OFFSET 0.000000 0.000000 0.000000
		CHANNELS 3 Zrotation Yrotation Xrotation
		JOINT RightUpLeg
		{
			OFFSET -1.305520 -1.794630 0.839290
			CHANNELS 3 Zrotation Yrotation Xrotation
			JOINT RightLeg
			{
				OFFSET -2.542530 -6.985550 0.000000
				CHANNELS 3 Zrotation Yrotation Xrotation
				JOINT RightFoot
				{
					OFFSET -2.568260 -7.056230 0.000000
					CHANNELS 3 Zrotation Yrotation Xrotation
					JOINT RightToeBase
					{
						OFFSET -0.164730 -0.452590 2.363150
						CHANNELS 3 Zrotation Yrotation Xrotation
						End Site
						{
							OFFSET 0.000000 0.000000 0.000000
						}
					}
				}
			}
		}
	}
	JOINT LowerBack
	{
		OFFSET 0.000000 0.000000 0.000000
		CHANNELS 3 Zrotation Yrotation Xrotation
		JOINT Spine
		{
			OFFSET 0.028270 2.035590 -0.193380
			CHANNELS 3 Zrotation Yrotation Xrotation
			JOINT Spine1
			{
				OFFSET 0.056720 2.048850 -0.042750
				CHANNELS 3 Zrotation Yrotation Xrotation
				JOINT Neck
				{
					OFFSET 0.000000 0.000000 0.000000
					CHANNELS 3 Zrotation Yrotation Xrotation
					JOINT Neck1
					{
						OFFSET -0.054170 1.746240 0.172020
						CHANNELS 3 Zrotation Yrotation Xrotation
						JOINT Head
						{
							OFFSET 0.104070 1.761360 -0.123970
							CHANNELS 3 Zrotation Yrotation Xrotation
							End Site
							{
								OFFSET 0.000000 0.000000 0.000000
							}
						}
					}
				}
				JOINT LeftShoulder
				{
					OFFSET 0.000000 0.000000 0.000000
					CHANNELS 3 Zrotation Yrotation Xrotation
					JOINT LeftArm
					{
						OFFSET 3.362410 1.200890 -0.311210
						CHANNELS 3 Zrotation Yrotation Xrotation
						JOINT LeftForeArm
						{
							OFFSET 4.983000 -0.000000 -0.000000
							CHANNELS 3 Zrotation Yrotation Xrotation
							JOINT LeftHand
							{
								OFFSET 3.483560 -0.000000 -0.000000
								CHANNELS 3 Zrotation Yrotation Xrotation
								JOINT LeftFingerBase
								{
									OFFSET 0.000000 0.000000 0.000000
									CHANNELS 3 Zrotation Yrotation Xrotation
									JOINT LeftHandIndex1
									{
										OFFSET 0.715260 -0.000000 -0.000000
										CHANNELS 3 Zrotation Yrotation Xrotation
										End Site
										{
											OFFSET 0.000000 0.000000 0.000000
										}
									}
								}
								JOINT LThumb
								{
									OFFSET 0.000000 0.000000 0.000000
									CHANNELS 3 Zrotation Yrotation Xrotation
									End Site
									{
										OFFSET 0.000000 0.000000 0.000000
									}
								}
							}
						}
					}
				}
				JOINT RightShoulder
				{
					OFFSET 0.000000 0.000000 0.000000
					CHANNELS 3 Zrotation Yrotation Xrotation
					JOINT RightArm
					{
						OFFSET -3.136600 1.374050 -0.404650
						CHANNELS 3 Zrotation Yrotation Xrotation
						JOINT RightForeArm
						{
							OFFSET -5.241900 -0.000000 -0.000000
							CHANNELS 3 Zrotation Yrotation Xrotation
							JOINT RightHand
							{
								OFFSET -3.444170 -0.000000 -0.000000
								CHANNELS 3 Zrotation Yrotation Xrotation
								JOINT RightFingerBase
								{
									OFFSET 0.000000 0.000000 0.000000
									CHANNELS 3 Zrotation Yrotation Xrotation
									JOINT RightHandIndex1
									{
										OFFSET -0.622530 -0.000000 -0.000000
										CHANNELS 3 Zrotation Yrotation Xrotation
										End Site
										{
											OFFSET 0.000000 0.000000 0.000000
										}
									}
								}
								JOINT RThumb
								{
									OFFSET 0.000000 0.000000 0.000000
									CHANNELS 3 Zrotation Yrotation Xrotation
									End Site
									{
										OFFSET 0.000000 0.000000 0.000000
									}
								}
							}
						}
					}
				}
			}
		}
	}
}
MOTION
Frames: 4
Frame Time: 0.008333
0.191002 17.456741 -0.750683 136.665532 -85.590984 -126.451663 -10.155572 -0.025083 1.596351 -7.451072 -4.247638 -35.246048 0.872781 1.870298 48.525403 2.621982 16.269953 16.955478 6.378501 0.000000 -63.908400 9.568440 -1.546678 2.440262 8.498648 4.633701 -9.866471 2.119161 0.765430 2.459574 -0.977736 -4.629552 -2.414285 -0.936100 0.000000 -50.261500 -3.488264 -2.215305 -4.336729 -1.348619 -2.118191 -3.480825 -6.399647 -2.223059 1.183083 9.887991 -9.765983 -7.794259 -3.394466 -0.263947 -0.027584 0.000000 0.000000 0.000000 -1.590230 7.929057 1.227438 -68.733338 1.304043 3.502892 -3.321262 -24.891042 0.005467 7.184923 -3.875265 -0.247392 -0.099783 0.019867 -0.000000 0.000000 0.000000 0.000000 0.000000 0.000000 0.000000 15.653562 -6.912601 0.470743 73.761835 7.935881 0.862330 3.438242 21.878516 0.016826 1.713292 8.461116 0.122923 0.083282 -0.106208 0.000000 0.000000 0.000000 0.000000 0.000000 0.000000 0.000000 
0.245782 17.459796 -0.782030 133.593893 -85.542302 -123.682972 -10.080851 -0.382440 1.447555 -7.427694 -4.650964 -37.775210 1.089655 2.026304 52.855641 2.697640 15.813565 20.642501 6.873400 -0.000000 -63.261599 9.733549 -1.452871 2.173992 8.295568 4.135780 -9.787679 2.085635 0.678154 2.898024 -0.936119 -4.357426 -2.464516 -0.882300 0.000001 -50.497100 -3.713679 -2.197305 -3.833963 -1.396428 -2.070179 -3.401771 -6.376927 -2.172691 1.105317 9.815705 -9.626782 -7.811925 -3.373940 -0.260996 -0.040166 0.000000 0.000000 0.000000 -1.600789 7.807595 1.298578 -68.723369 1.156643 3.323754 -3.341718 -24.787600 0.005211 6.999550 -3.824065 -0.237998 -0.099543 0.021550 -0.000000 0.000000 0.000000 0.000000 0.000000 0.000000 0.000000 15.474789 -6.721552 0.525047 73.906426 8.082149 1.137638 3.410341 22.042178 0.016519 1.754057 8.309374 0.123815 0.082001 -0.107452 0.000000 0.000000 0.000000 0.000000 0.000000 0.000000 0.000000 
0.304149 17.460853 -0.810037 130.571852 -85.502530 -121.025689 -9.996131 -0.760156 1.261989 -7.424833 -5.017239 -40.311694 1.260941 2.191365 57.251940 2.771474 15.187791 24.008803 7.141601 0.000000 -61.797601 9.887608 -1.348591 1.869408 8.108406 3.611879 -9.574802 2.053543 0.594668 3.272474 -0.897631 -4.110685 -2.504173 -0.833700 0.000000 -50.752100 -3.911382 -2.161425 -3.236653 -1.441447 -2.005900 -3.310026 -6.355831 -2.105028 1.007664 9.739462 -9.469753 -7.828484 -3.356656 -0.258147 -0.053891 0.000000 0.000000 0.000000 -1.628888 7.632474 1.378639 -68.741507 0.975108 3.143340 -3.358250 -24.669404 0.004898 6.808345 -3.766397 -0.228204 -0.098936 0.023499 -0.000000 0.000000 0.000000 0.000000 0.000000 0.000000 0.000000 15.298213 -6.499464 0.593168 73.990350 8.216530 1.493034 3.379615 22.297260 0.016233 1.794465 8.172687 0.124907 0.080569 -0.109040 0.000000 0.000000 0.000000 0.000000 0.000000 0.000000 0.000000 
0.365093 17.459887 -0.834569 127.598557 -85.474544 -118.472234 -9.905267 -1.144800 1.039057 -7.457014 -5.334230 -42.857790 1.402177 2.379647 61.703408 2.835538 14.457919 26.910960 7.199800 0.000000 -59.858801 10.030196 -1.237243 1.538063 7.936415 3.084253 -9.239490 2.021930 0.515757 3.580616 -0.865246 -3.904498 -2.536348 -0.791899 0.000000 -51.004600 -4.079072 -2.108944 -2.560557 -1.482559 -1.927316 -3.207041 -6.336052 -2.022130 0.896503 9.661833 -9.309475 -7.845209 -3.342564 -0.255418 -0.068970 0.000000 0.000000 0.000000 -1.673373 7.418113 1.463434 -68.788836 0.755978 2.975769 -3.370223 -24.525940 0.004552 6.625786 -3.711158 -0.219015 -0.097980 0.025618 -0.000000 0.000000 0.000000 0.000000 0.000000 0.000000 0.000000 15.130108 -6.264369 0.672087 74.003946 8.356054 1.940652 3.347918 22.617651 0.015998 1.828342 8.070789 0.125900 0.079115 -0.110940 0.000000 0.000000 0.000000 0.000000 0.000000 0.000000 0.000000 
